P3
#Created with GIMP
#
3 3
255
153 153 153    154 154 154       255 255 255 
204 204 204     230 230 230      230 230 230 
230 230 230    179 179 179       127 127 127 
