P3
#Created with GIMP
#
3 3
255
25 127 25 179 127 12 102 204 230          
102 230 153 204 230 153 204 51 153
255 153 153 52 154 154 51 102 153         
           
