P3
3 3 255 
51 102 153 52 154 154 255 153 153 204 51 153 204 230 153 102 230 153 102 204 230 179 127 12 25 127 25 