P3
#Created with GIMP
#
3 3
255
1 52 103        52 104 104          155 103 103 
154 1 103       154 155 103         52 155 103 
52 154 155      129 77 0            0 77 0
