P3
3 3 255 
127 113 88 167 149 116 246 219 171 148 131 102 255 254 198 245 219 170 240 214 166 170 151 118 112 100 77 