P3
#Created with GIMP
#
3 3
255
102 102 102     120 120 120         187 187 187
136 136 136     195 195 195         161 161 161
178 178 178     106 106 106         59 59 59